<svg xmlns="http://www.w3.org/2000/svg" width="140" height="140" viewBox="0 0 140 140">
  <defs>
    <style>
      .cls-1, .cls-2 {
        fill: #104b6f;
      }

      .cls-1 {
        opacity: 0.167;
      }

      .cls-3 {
        fill: #85e5fe;
      }

      .cls-4 {
        fill: #fe644e;
      }

      .cls-5 {
        fill: #62ddfe;
      }
    </style>
  </defs>
  <g id="Group_20" data-name="Group 20" transform="translate(-204 -1415)">
    <rect id="Rectangle_22" data-name="Rectangle 22" class="cls-1" width="140" height="140" rx="70" transform="translate(204 1415)"/>
    <g id="qbYSz3.tif" transform="translate(1029.569 98.673)">
      <g id="Group_7" data-name="Group 7" transform="translate(-787.841 1355.27)">
        <path id="Path_4" data-name="Path 4" class="cls-2" d="M-392.888,1532.014a19.107,19.107,0,0,1,4.275,6.733,18.149,18.149,0,0,1,1.156,4.926c.011.122-.011.256.124.332v.379a6.259,6.259,0,0,0,0,2.776v.252c-.175.115-.113.3-.133.459a19.742,19.742,0,0,1-2.992,8.4,18.8,18.8,0,0,1-5.943,5.89c-.461.286-.587.5-.254,1.01.63.958,1.177,1.971,1.854,3.122l-6.144-1.4c-2-.568-4.022-1.012-6.045-1.469-.522-.118-.718-.249-.538-.861.879-3,1.7-6.013,2.538-9.021.273-.975.555-1.948.87-3.056.659,1.117,1.261,2.077,1.8,3.072.282.524.5.629,1.045.275a19.456,19.456,0,0,0,7.392-8.705,18.983,18.983,0,0,0,1.4-10.641C-392.611,1533.662-392.753,1532.839-392.888,1532.014Z" transform="translate(451.877 -1510.058)"/>
        <path id="Path_6" data-name="Path 6" class="cls-3" d="M-248.191,1632.765a6.258,6.258,0,0,1,0-2.776Z" transform="translate(312.735 -1595.663)"/>
        <path id="Path_8" data-name="Path 8" class="cls-2" d="M-649.515,1364.157c.6,2.054,1.186,4.11,1.8,6.159.106.355.078.528-.312.627q-6.041,1.534-12.077,3.087a2.222,2.222,0,0,1-.275.022c.614-1.091,1.173-2.137,1.788-3.15.266-.439.247-.636-.243-.888a19.573,19.573,0,0,0-22.752,3.3c-.119.115-.256.211-.385.315a10.168,10.168,0,0,1,1.171-3.234,19.311,19.311,0,0,1,14.174-10.735,18.59,18.59,0,0,1,12.4,1.876c.593.311.846.21,1.134-.354.514-1.008,1.1-1.979,1.72-3.08Z" transform="translate(691.614 -1358.103)"/>
        <path id="Path_9" data-name="Path 9" class="cls-2" d="M-754.125,1626.319c1.452-1.517,2.917-3.022,4.348-4.56.367-.395.571-.448.978-.026,2.771,2.876,5.572,5.723,8.362,8.581.1.1.183.211.373.431-1.3,0-2.464.015-3.63-.007-.48-.009-.669.046-.644.646a19.214,19.214,0,0,0,5.311,12.675,19.118,19.118,0,0,0,8.7,5.355c.223.066.585-.036.654.35a24.477,24.477,0,0,1-5.149.539,19.334,19.334,0,0,1-7.856-1.831,19.357,19.357,0,0,1-10.806-13.119,14.073,14.073,0,0,1-.515-3.8c.009-.537-.138-.736-.712-.712-1.167.048-2.337.014-3.64.014Z" transform="translate(758.352 -1588.193)"/>
        <path id="Path_10" data-name="Path 10" class="cls-4" d="M-682.686,1481.009l-.115.1Z" transform="translate(692.339 -1465.492)"/>
        <path id="Path_11" data-name="Path 11" class="cls-5" d="M-291.861,1531.373l-.118-.1Z" transform="translate(350.859 -1509.411)"/>
        <path id="Path_12" data-name="Path 12" class="cls-2" d="M-604.115,1551.68c2.16,0,4.172.018,6.183-.012.527-.008.749.083.7.673a21.291,21.291,0,0,0-.008,2.333c.012.372-.079.514-.485.513q-5.646-.022-11.293,0c-.372,0-.563-.089-.5-.489a.4.4,0,0,0,0-.126,4.115,4.115,0,0,1,1.544-3.949,61.582,61.582,0,0,0,5.526-5.793,3.909,3.909,0,0,0,.834-1.606,2.025,2.025,0,0,0-2.54-2.456,3.768,3.768,0,0,0-2.156,1.741c-.307.468-.545.486-.985.19-.7-.468-1.437-.87-2.161-1.3-.211-.124-.369-.2-.178-.514a6.991,6.991,0,0,1,7.894-3.307,5.216,5.216,0,0,1,3.21,7.807,19.2,19.2,0,0,1-2.638,3.208C-602.1,1549.6-603.055,1550.573-604.115,1551.68Z" transform="translate(628.485 -1514.711)"/>
        <path id="Path_13" data-name="Path 13" class="cls-2" d="M-482.963,1540.414l-5.912,9.9c.792,0,1.49,0,2.187,0,.3,0,.259-.215.26-.4,0-.715.022-1.431-.006-2.145-.015-.392.119-.505.5-.5.946.024,1.893.021,2.839,0,.336-.007.434.1.424.431-.021.714.009,1.431-.013,2.145-.011.344.074.524.449.466a1.177,1.177,0,0,1,.189,0c1.353.005,1.353.005,1.353,1.33,0,.547-.012,1.094,0,1.641.009.3-.1.434-.4.4a.622.622,0,0,0-.126,0c-.472.048-1.115-.223-1.372.125-.235.318-.083.926-.088,1.407-.007.736-.016,1.473,0,2.208.009.333-.107.436-.434.43-.946-.017-1.893-.024-2.839,0-.4.011-.5-.141-.491-.513.021-.988-.023-1.978.019-2.965.023-.537-.1-.722-.682-.71-1.913.04-3.828,0-5.741.027-.489.008-.551-.157-.593-.6a6.513,6.513,0,0,1,1.166-4.367c1.68-2.564,3.2-5.23,4.777-7.863a.794.794,0,0,1,.791-.465C-485.5,1540.431-484.308,1540.414-482.963,1540.414Z" transform="translate(526.904 -1517.389)"/>
        <path id="Path_14" data-name="Path 14" class="cls-2" d="M-382.31,1527.108a3.351,3.351,0,0,1,1.368-.706,2.254,2.254,0,0,1,2.718,2.052c.126,1.333.053,2.685.067,4.029,0,.127,0,.284-.165.29a13.168,13.168,0,0,1-1.446,0c-.224-.017-.15-.267-.151-.422-.006-.882,0-1.765-.006-2.647a6.477,6.477,0,0,0-.065-.814c-.075-.553-.322-.953-.946-.984a1.188,1.188,0,0,0-1.271.9,18.1,18.1,0,0,0-.1,3.2c-.029.885.129.786-.819.791s-.951,0-.951-.971v-6.492c0-1.4,0-1.39,1.392-1.3.317.021.383.142.379.422C-382.318,1525.3-382.31,1526.141-382.31,1527.108Z" transform="translate(431.329 -1503.061)"/>
      </g>
    </g>
  </g>
</svg>
