<svg xmlns="http://www.w3.org/2000/svg" width="140" height="140" viewBox="0 0 140 140">
  <defs>
    <style>
      .cls-1, .cls-2 {
        fill: #104b6f;
      }

      .cls-1 {
        opacity: 0.167;
      }
    </style>
  </defs>
  <g id="Group_18" data-name="Group 18" transform="translate(-1012 -1415)">
    <rect id="Rectangle_24" data-name="Rectangle 24" class="cls-1" width="140" height="140" rx="70" transform="translate(1012 1415)"/>
    <g id="Rve5J7.tif" transform="translate(778.805 1257.645)">
      <g id="Group_9" data-name="Group 9" transform="translate(272.041 200.095)">
        <path id="Path_20" data-name="Path 20" class="cls-2" d="M246.12,479.3H190.141c-.018-.034-.028-.09-.053-.1a4.046,4.046,0,0,1-2.891-2.891c-.008-.025-.064-.036-.1-.053V455.935q15.381,0,30.763-.009a.919.919,0,0,1,.885.453,22.291,22.291,0,0,0,2.341,2.944,40.3,40.3,0,0,0,9.86,7.52,5.575,5.575,0,0,0,5.63.065c.625-.328,1.228-.7,1.829-1.074a33.747,33.747,0,0,0,10.644-9.617c.087-.128.147-.3.355-.282v20.323c-.337.422-.415.972-.731,1.413A4.621,4.621,0,0,1,246.12,479.3Zm-45.392-15.578c-1.237,0-2.474-.005-3.711,0a1.952,1.952,0,1,0-.03,3.891q3.741.013,7.482,0a1.952,1.952,0,1,0-.03-3.891C203.2,463.718,201.966,463.723,200.729,463.723Z" transform="translate(-187.099 -424.781)"/>
        <path id="Path_21" data-name="Path 21" class="cls-2" d="M474.019,218.471a8.2,8.2,0,0,0-.332,2.049,21,21,0,0,1-7.664,13.709,45.886,45.886,0,0,1-6.439,4.449,2.023,2.023,0,0,1-2.186.052,37.5,37.5,0,0,1-8.906-6.792,20.475,20.475,0,0,1-5.268-11.254c-.612-4.26-.279-8.544-.345-12.818a1.857,1.857,0,0,1,1.231-1.8q6.739-2.9,13.482-5.786c.161-.069.374,0,.486-.19h.73c.271.114.542.227.813.342,4.15,1.777,8.294,3.567,12.453,5.323a3.142,3.142,0,0,1,1.946,1.636Zm-7.789-4.809a3.548,3.548,0,0,0-.066-.388,1.853,1.853,0,0,0-1.485-1.436,1.929,1.929,0,0,0-2.022.8c-1.884,2.357-3.774,4.71-5.648,7.076-.272.344-.4.46-.69-.008-.646-1.051-1.345-2.07-2.046-3.086a1.947,1.947,0,1,0-3.225,2.173q1.851,2.815,3.74,5.6a1.937,1.937,0,0,0,3.31.165c2.557-3.168,5.09-6.355,7.632-9.535A2.138,2.138,0,0,0,466.231,213.662Z" transform="translate(-411.712 -200.095)"/>
        <path id="Path_22" data-name="Path 22" class="cls-2" d="M187.1,299.032c.159-.028.15-.178.188-.28a3.874,3.874,0,0,1,3.918-2.76c1.642-.009,3.284,0,4.926,0q8.819,0,17.638-.01c.453,0,.607.082.6.578a60.6,60.6,0,0,0,.223,7.593c.136,1.166.348,2.319.573,3.521H187.1Z" transform="translate(-187.099 -284.307)"/>
      </g>
    </g>
  </g>
</svg>
