<svg xmlns="http://www.w3.org/2000/svg" width="140" height="140" viewBox="0 0 140 140">
  <defs>
    <style>
      .cls-1, .cls-2 {
        fill: #104b6f;
      }

      .cls-1 {
        opacity: 0.167;
      }
    </style>
  </defs>
  <g id="Group_17" data-name="Group 17" transform="translate(-1415 -1415)">
    <rect id="Rectangle_25" data-name="Rectangle 25" class="cls-1" width="140" height="140" rx="70" transform="translate(1415 1415)"/>
    <g id="Oopxa6" transform="translate(1174.36 944.672)">
      <g id="Group_1" data-name="Group 1" transform="translate(279.497 509.271)">
        <path id="Path_1" data-name="Path 1" class="cls-2" d="M321.054,556.4l19.043-.089c.84,0,1.68.016,1.666,1.189-.081,6.616.547,13.27-1.747,19.719a31.874,31.874,0,0,1-29.438,20.552c-14.559.085-28.541-11.1-30.72-26.162-.682-4.711-.168-9.474-.27-14.212-.027-1.233.85-1.128,1.668-1.127q9.523.011,19.045.015l-.024-.05c0,3.354-.019,6.708,0,10.063.026,6.155,4.379,10.708,10.271,10.768a10.442,10.442,0,0,0,10.505-10.589c.055-3.353.04-6.708.057-10.063Z" transform="translate(-279.497 -535.661)"/>
        <path id="Path_2" data-name="Path 2" class="cls-2" d="M347.7,530.012l.051.015c-.794-.025-1.589-.067-2.383-.072q-9.223-.06-18.446-.107l.024.05c-.006-3.422-.054-6.845-.009-10.266.082-6.129,4.289-10.04,10.293-10.35A10.291,10.291,0,0,1,347.7,519.746Q347.694,524.879,347.7,530.012Z" transform="translate(-306.14 -509.271)"/>
      </g>
    </g>
  </g>
</svg>
