<svg xmlns="http://www.w3.org/2000/svg" width="140" height="140" viewBox="0 0 140 140">
  <defs>
    <style>
      .cls-1, .cls-2 {
        fill: #104b6f;
      }

      .cls-1 {
        opacity: 0.167;
      }
    </style>
  </defs>
  <g id="Group_19" data-name="Group 19" transform="translate(-608 -1415)">
    <rect id="Rectangle_23" data-name="Rectangle 23" class="cls-1" width="140" height="140" rx="70" transform="translate(608 1415)"/>
    <g id="XnElI0.tif" transform="translate(274.319 1257.8)">
      <g id="Group_8" data-name="Group 8" transform="translate(370.112 194.113)">
        <path id="Path_15" data-name="Path 15" class="cls-2" d="M497.093,336.008c-.134-.265-.407-.151-.609-.2a6.961,6.961,0,0,1-5.477-5.433,2.021,2.021,0,0,0-.1-.249c-.062.017-.115.015-.136.04-1.014,1.215-1.84,1.079-2.423-.41-.15-.382-.262-.778-.4-1.2a2.408,2.408,0,0,1-1.621.41c-5.8-.008-11.6,0-17.4-.014-.55,0-.8.063-.9.73a7.027,7.027,0,0,1-13.86-.1c-.06-.426-.154-.6-.645-.635-2.614-.187-4.333-2.476-4.1-5.357a15.327,15.327,0,0,1,.932-4.067,32.542,32.542,0,0,1,2.576-5.3c.116-.2.2-.373.5-.372,5.478.01,10.957.007,16.495.007a5.981,5.981,0,0,0,1.66,6.385c.115-1.867.222-3.574.324-5.281.174-2.906.34-5.812.521-8.717.069-1.1-.254-1.5-1.35-1.618q-2.494-.267-4.986-.55a3.27,3.27,0,0,1-2.89-3.921q1.535-7.462,3.1-14.918a3.995,3.995,0,0,1,7.931.818,1.125,1.125,0,0,0,.338.842,17.224,17.224,0,0,0,7.179,4.27,10.045,10.045,0,0,0,3.824.632c1.74-.061,3.484-.017,5.227-.014,2.418,0,3.7,1.276,3.706,3.673,0,.665.017,1.331-.015,1.994a3.227,3.227,0,0,1-3.121,3.062c-.6.021-1.193.023-1.788,0-.341-.012-.492.049-.447.446a16.31,16.31,0,0,0,2.276,7.054,7.467,7.467,0,0,0,1.982,2.165,6.485,6.485,0,0,1,2.872,6.976c-.021.112-.029.226-.052.4a8.968,8.968,0,0,1,9.163,6.775c.062.221-.01.509.244.664v1.238c-.163.184-.293.461-.5.534-.47.169-.406.443-.341.828a7.029,7.029,0,0,1-5.509,8.2c-.268.059-.595-.07-.809.2Zm-24.419-42.814c-.272,1.188-.534,2.277-.767,3.372a1.1,1.1,0,0,0,.823,1.483q2.4.907,4.812,1.8a3.311,3.311,0,0,1,2.481,3.832c-.168,1.938-.4,3.871-.606,5.806-.4,3.756-.78,7.514-1.2,11.267-.055.5.1.557.527.546,1.03-.026,2.062-.031,3.092,0,.457.014.623-.08.622-.586q-.026-11.477,0-22.955c0-.489-.174-.62-.61-.668a17.231,17.231,0,0,1-4.238-1.084A19.99,19.99,0,0,1,472.674,293.194Zm27.241,32.857a12.4,12.4,0,0,0-6.206,1.615,1.2,1.2,0,0,0-.711,1.147,4.74,4.74,0,0,0,2.851,4.411,4.846,4.846,0,0,0,6.672-5.759c-.333-1.214-.485-1.305-1.769-1.376C500.432,326.071,500.112,326.059,499.914,326.051Zm-38.788,2.906c-1.4,0-2.792.033-4.185-.015-.609-.021-.672.2-.551.7a4.868,4.868,0,0,0,9.453-.089c.113-.507-.046-.614-.531-.6C463.918,328.976,462.522,328.957,461.127,328.957Z" transform="translate(-438.484 -269.833)"/>
        <path id="Path_16" data-name="Path 16" class="cls-2" d="M370.112,308.5c.219-.1.2-.34.282-.514a3.166,3.166,0,0,1,2.923-1.947q7.805-.044,15.611,0a3.227,3.227,0,0,1,3.188,3.224q.033,6.12,0,12.241a3.24,3.24,0,0,1-3.258,3.227q-7.736.026-15.473,0a3.188,3.188,0,0,1-3.016-2.016c-.073-.154-.048-.373-.257-.451Z" transform="translate(-370.112 -290.615)"/>
        <path id="Path_17" data-name="Path 17" class="cls-2" d="M592.258,194.113c.478.243,1.02.281,1.508.517a5.514,5.514,0,1,1-4.219-.179c.265-.1.586-.081.784-.338Z" transform="translate(-556.213 -194.113)"/>
        <path id="Path_19" data-name="Path 19" class="cls-2" d="M468.037,456.873q4.226,0,8.453,0c1.045,0,1.417.363,1.423,1.391.008,1.26-.013,2.52.011,3.78.008.4-.117.495-.5.494q-8.522-.017-17.043,0a.758.758,0,0,1-.639-.3,6.5,6.5,0,0,1-1.59-4c-.043-.936.363-1.357,1.3-1.359C462.31,456.869,465.173,456.873,468.037,456.873Z" transform="translate(-446.03 -420.707)"/>
      </g>
    </g>
  </g>
</svg>
